<mxfile host="65bd71144e">
    <diagram id="9bh0cdp2ASUkYgQ-xmnt" name="Page-1">
        <mxGraphModel dx="808" dy="439" grid="1" gridSize="10" guides="1" tooltips="1" connect="1" arrows="1" fold="1" page="1" pageScale="1" pageWidth="827" pageHeight="1169" math="0" shadow="0">
            <root>
                <mxCell id="0"/>
                <mxCell id="1" parent="0"/>
                <mxCell id="2" value="" style="rounded=1;whiteSpace=wrap;html=1;fillColor=none;" vertex="1" parent="1">
                    <mxGeometry x="10" y="18" width="360" height="462" as="geometry"/>
                </mxCell>
                <mxCell id="9" style="edgeStyle=orthogonalEdgeStyle;html=1;exitX=0.5;exitY=0;exitDx=0;exitDy=0;entryX=0.5;entryY=1;entryDx=0;entryDy=0;strokeWidth=2;endArrow=classicThin;endFill=1;endSize=1;" edge="1" parent="1" source="3" target="5">
                    <mxGeometry relative="1" as="geometry"/>
                </mxCell>
                <mxCell id="32" style="edgeStyle=orthogonalEdgeStyle;html=1;exitX=0.5;exitY=0;exitDx=0;exitDy=0;entryX=0;entryY=0.5;entryDx=0;entryDy=0;strokeWidth=2;fontColor=#FFFFFF;endArrow=classicThin;endFill=1;endSize=1;" edge="1" parent="1" source="3" target="4">
                    <mxGeometry relative="1" as="geometry">
                        <Array as="points">
                            <mxPoint x="208" y="160"/>
                            <mxPoint x="40" y="160"/>
                            <mxPoint x="40" y="49"/>
                        </Array>
                    </mxGeometry>
                </mxCell>
                <mxCell id="3" value="Add &amp;amp; Norm" style="rounded=1;whiteSpace=wrap;html=1;fillColor=#ece133;fontFamily=EHUSans;fontStyle=0;" vertex="1" parent="1">
                    <mxGeometry x="75" y="180" width="265" height="22" as="geometry"/>
                </mxCell>
                <mxCell id="17" style="edgeStyle=orthogonalEdgeStyle;html=1;exitX=0.5;exitY=0;exitDx=0;exitDy=0;strokeWidth=2;fontColor=#FFFFFF;endArrow=classicThin;endFill=1;endSize=1;" edge="1" parent="1" source="4">
                    <mxGeometry relative="1" as="geometry">
                        <mxPoint x="207.38461538461536" y="10" as="targetPoint"/>
                    </mxGeometry>
                </mxCell>
                <mxCell id="4" value="Add &amp;amp; Norm" style="rounded=1;whiteSpace=wrap;html=1;fillColor=#ece133;fontFamily=EHUSans;fontStyle=0;" vertex="1" parent="1">
                    <mxGeometry x="75" y="38" width="265" height="22" as="geometry"/>
                </mxCell>
                <mxCell id="8" style="edgeStyle=orthogonalEdgeStyle;html=1;exitX=0.5;exitY=0;exitDx=0;exitDy=0;entryX=0.5;entryY=1;entryDx=0;entryDy=0;strokeWidth=2;endArrow=classicThin;endFill=1;endSize=1;" edge="1" parent="1" source="5" target="4">
                    <mxGeometry relative="1" as="geometry"/>
                </mxCell>
                <mxCell id="5" value="Add &amp;amp; Norm" style="rounded=1;whiteSpace=wrap;html=1;fillColor=#56b4e9;fontFamily=EHUSans;fontStyle=0;" vertex="1" parent="1">
                    <mxGeometry x="75" y="90" width="265" height="40" as="geometry"/>
                </mxCell>
                <mxCell id="20" style="html=1;exitX=0.5;exitY=0;exitDx=0;exitDy=0;entryX=0.5;entryY=1;entryDx=0;entryDy=0;strokeWidth=2;fontColor=#FFFFFF;endArrow=classicThin;endFill=1;edgeStyle=orthogonalEdgeStyle;endSize=1;" edge="1" parent="1" source="11" target="14">
                    <mxGeometry relative="1" as="geometry">
                        <Array as="points">
                            <mxPoint x="207" y="430"/>
                            <mxPoint x="95" y="430"/>
                        </Array>
                    </mxGeometry>
                </mxCell>
                <mxCell id="21" style="edgeStyle=orthogonalEdgeStyle;html=1;exitX=0.5;exitY=0;exitDx=0;exitDy=0;entryX=0.5;entryY=1;entryDx=0;entryDy=0;strokeWidth=2;fontColor=#FFFFFF;endArrow=classicThin;endFill=1;endSize=1;" edge="1" parent="1" source="11" target="15">
                    <mxGeometry relative="1" as="geometry"/>
                </mxCell>
                <mxCell id="22" style="edgeStyle=orthogonalEdgeStyle;html=1;exitX=0.5;exitY=0;exitDx=0;exitDy=0;entryX=0.5;entryY=1;entryDx=0;entryDy=0;strokeWidth=2;fontColor=#FFFFFF;endArrow=classicThin;endFill=1;endSize=1;" edge="1" parent="1" source="11" target="16">
                    <mxGeometry relative="1" as="geometry">
                        <Array as="points">
                            <mxPoint x="207" y="430"/>
                            <mxPoint x="320" y="430"/>
                        </Array>
                    </mxGeometry>
                </mxCell>
                <mxCell id="35" style="edgeStyle=orthogonalEdgeStyle;hachureGap=4;html=1;exitX=0.5;exitY=0;exitDx=0;exitDy=0;entryX=0;entryY=0.5;entryDx=0;entryDy=0;strokeWidth=2;fontFamily=Architects Daughter;fontSource=https%3A%2F%2Ffonts.googleapis.com%2Fcss%3Ffamily%3DArchitects%2BDaughter;fontSize=16;sketchStyle=rough;endSize=1;endArrow=classicThin;endFill=1;" edge="1" parent="1" source="11" target="3">
                    <mxGeometry relative="1" as="geometry">
                        <Array as="points">
                            <mxPoint x="208" y="450"/>
                            <mxPoint x="40" y="450"/>
                            <mxPoint x="40" y="191"/>
                        </Array>
                    </mxGeometry>
                </mxCell>
                <mxCell id="11" value="" style="rounded=1;whiteSpace=wrap;html=1;fillColor=none;strokeColor=none;" vertex="1" parent="1">
                    <mxGeometry x="147.5" y="494" width="120" height="10" as="geometry"/>
                </mxCell>
                <mxCell id="29" style="edgeStyle=none;html=1;exitX=0.5;exitY=0;exitDx=0;exitDy=0;entryX=0.075;entryY=1;entryDx=0;entryDy=0;entryPerimeter=0;strokeWidth=2;fontColor=#FFFFFF;endArrow=classicThin;endFill=1;endSize=1;" edge="1" parent="1" source="14" target="26">
                    <mxGeometry relative="1" as="geometry"/>
                </mxCell>
                <mxCell id="14" value="&lt;font color=&quot;#ffffff&quot;&gt;Q&lt;/font&gt;" style="rounded=1;whiteSpace=wrap;html=1;fillColor=#0173b2;fontFamily=EHUSans;fontStyle=0;" vertex="1" parent="1">
                    <mxGeometry x="75" y="336" width="40" height="40" as="geometry"/>
                </mxCell>
                <mxCell id="30" style="edgeStyle=none;html=1;exitX=0.5;exitY=0;exitDx=0;exitDy=0;entryX=0.534;entryY=0.617;entryDx=0;entryDy=0;entryPerimeter=0;strokeWidth=2;fontColor=#FFFFFF;endArrow=classicThin;endFill=1;endSize=1;" edge="1" parent="1" source="15">
                    <mxGeometry relative="1" as="geometry">
                        <mxPoint x="207.58000000000015" y="280.07399999999996" as="targetPoint"/>
                    </mxGeometry>
                </mxCell>
                <mxCell id="15" value="&lt;font color=&quot;#ffffff&quot;&gt;K&lt;/font&gt;" style="rounded=1;whiteSpace=wrap;html=1;fillColor=#0173b2;fontFamily=EHUSans;fontStyle=0;" vertex="1" parent="1">
                    <mxGeometry x="187.5" y="336" width="40" height="40" as="geometry"/>
                </mxCell>
                <mxCell id="31" style="edgeStyle=none;html=1;exitX=0.5;exitY=0;exitDx=0;exitDy=0;entryX=0.838;entryY=0.617;entryDx=0;entryDy=0;entryPerimeter=0;strokeWidth=2;fontColor=#FFFFFF;endArrow=classicThin;endFill=1;endSize=1;" edge="1" parent="1" source="16">
                    <mxGeometry relative="1" as="geometry">
                        <mxPoint x="320.0600000000002" y="280.07399999999996" as="targetPoint"/>
                    </mxGeometry>
                </mxCell>
                <mxCell id="16" value="&lt;font color=&quot;#ffffff&quot;&gt;V&lt;/font&gt;" style="rounded=1;whiteSpace=wrap;html=1;fillColor=#0173b2;fontFamily=EHUSans;fontStyle=0;" vertex="1" parent="1">
                    <mxGeometry x="300" y="336" width="40" height="40" as="geometry"/>
                </mxCell>
                <mxCell id="27" style="edgeStyle=orthogonalEdgeStyle;html=1;exitX=0.5;exitY=0;exitDx=0;exitDy=0;entryX=0.5;entryY=1;entryDx=0;entryDy=0;strokeWidth=2;fontColor=#FFFFFF;endArrow=classicThin;endFill=1;endSize=1;" edge="1" parent="1" source="26" target="3">
                    <mxGeometry relative="1" as="geometry"/>
                </mxCell>
                <mxCell id="26" value="Multi-head attention" style="rounded=1;whiteSpace=wrap;html=1;fillColor=#d55e00;fontFamily=EHUSans;fontStyle=0;fontColor=#FFFFFF;" vertex="1" parent="1">
                    <mxGeometry x="75" y="240" width="265" height="40" as="geometry"/>
                </mxCell>
            </root>
        </mxGraphModel>
    </diagram>
</mxfile>